<svg width="101" height="30" viewBox="0 0 101 30" fill="none" xmlns="http://www.w3.org/2000/svg">
<path fill-rule="evenodd" clip-rule="evenodd" d="M11.5621 23.8777C13.0594 24.8579 14.8422 25.3479 16.9106 25.3479C18.9868 25.3479 20.7696 24.8617 22.2592 23.8893C22.9161 23.4592 23.5069 22.9452 24.0315 22.3473C21.09 22.3167 14.9275 21.5195 13.8097 18.5756C13.61 18.1926 13.4358 17.7565 13.2871 17.2673C12.9475 16.125 12.7815 14.6856 12.7892 12.9491C12.797 10.3867 13.179 8.48809 13.9354 7.25322C14.6917 6.01063 15.6835 5.38934 16.9106 5.38934C17.7364 5.38934 18.4581 5.66332 19.0755 6.2113C19.6929 6.75927 20.1753 7.59281 20.5226 8.71191C20.8699 9.82329 21.0436 11.2357 21.0436 12.9491C21.0513 15.5654 20.6731 17.5065 19.909 18.7723C19.5322 19.3927 19.0981 19.8602 18.6067 20.1746C20.392 20.6738 24.2373 21.4252 25.3364 20.4379C25.4721 20.1817 25.6002 19.9159 25.7207 19.6405C26.531 17.7882 26.9362 15.5577 26.9362 12.9491C26.944 10.3558 26.5426 8.1485 25.7322 6.32706C24.9219 4.50563 23.7642 3.12026 22.2592 2.17095C20.7619 1.21393 18.979 0.735413 16.9106 0.735413C14.8422 0.735413 13.0594 1.21393 11.5621 2.17095C10.0725 3.12026 8.92255 4.50563 8.11217 6.32706C7.3095 8.14078 6.90431 10.3481 6.89659 12.9491C6.88888 15.55 7.29021 17.7766 8.10059 19.6289C8.91098 21.4735 10.0648 22.8898 11.5621 23.8777Z" fill="#FF6566"/>
<path d="M34.0879 6.98697L37.0168 12.8449L46.6652 1.48297H52.9758L40.7909 15.878L47.5294 27.4703H41.8683L37.0168 18.8649L32.5072 24.2568L34.0879 17.923L33.2543 15.878L28.3457 6.98697H34.0879Z" fill="#FF6566"/>
<path d="M35.9766 17.6202C32.5303 20.8337 31.813 24.7179 24.1007 24.8855C14.4602 25.0951 11.0837 21.7885 10.292 17.0614" stroke="#FF6566" stroke-width="5.02981"/>
<path d="M53.3719 1.48297V27.4237H47.7634V6.736H47.6272L43.4287 6.34978L46.7586 1.48334L48.1608 1.48297H53.3719Z" fill="#FF6566"/>
<path d="M73.4463 20.9394V16.5423C78.8382 11.8356 80.8679 8.46654 83.1593 1.48297H87.1302V7.45203H85.0116C84.1274 11.1059 82.6746 13.0351 79.1421 16.3145V16.4967H97.2913C95.1034 17.7872 94.256 18.795 93.2081 20.9394H73.4463ZM84.8959 27.4703V19.5952L85.0116 17.6701V1.48297H90.3717V24.5604C89.2358 26.9285 87.9593 27.471 84.8959 27.4703Z" fill="#FF6566"/>
<path d="M16.7195 28.0059C14.8007 27.8568 12.1476 26.1585 11.0609 25.328C8.39077 25.8946 2.44039 26.7717 0 25.7471C1.16431 30.0783 12.2718 29.8688 16.7195 28.0059Z" fill="#FF6566"/>
<path d="M60.4275 27.4703C59.2716 27.4703 58.2494 27.2816 57.3609 26.9042C56.4803 26.5189 55.7883 25.937 55.2851 25.1586C54.7819 24.3802 54.5303 23.3894 54.5303 22.1864C54.5303 21.1957 54.6993 20.3504 55.0374 19.6506C55.3755 18.9429 55.8473 18.365 56.4528 17.9168C57.0582 17.4686 57.7619 17.1266 58.564 16.8907C59.3738 16.6548 60.2466 16.5015 61.1823 16.4307C62.1966 16.3521 63.0104 16.2577 63.6238 16.1477C64.2449 16.0297 64.6931 15.8685 64.9683 15.6641C65.2435 15.4518 65.3811 15.1727 65.3811 14.8267V14.7795C65.3811 14.3077 65.2003 13.946 64.8386 13.6944C64.4769 13.4428 64.013 13.317 63.4468 13.317C62.8257 13.317 62.3185 13.4546 61.9254 13.7298C61.5401 13.9972 61.3081 14.41 61.2295 14.9682H55.2379C55.3166 13.8674 55.6665 12.8531 56.2876 11.9253C56.9167 10.9896 57.8327 10.2426 59.0357 9.68434C60.2388 9.11821 61.7406 8.83514 63.5412 8.83514C64.8386 8.83514 66.0023 8.98847 67.0323 9.29512C68.0624 9.59392 68.9391 10.0146 69.6625 10.5571C70.3859 11.0918 70.9363 11.7208 71.3137 12.4442C71.699 13.1598 71.8916 13.9382 71.8916 14.7795V27.1872H65.8057V24.6396H65.6642C65.3025 25.3158 64.8622 25.8623 64.3432 26.2791C63.8321 26.6958 63.2463 26.9985 62.5858 27.1872C61.9332 27.3759 61.2138 27.4703 60.4275 27.4703ZM62.5505 23.3658C63.0458 23.3658 63.5097 23.2636 63.9422 23.0592C64.3825 22.8547 64.7403 22.5599 65.0155 22.1746C65.2907 21.7893 65.4283 21.3215 65.4283 20.7711V19.2614C65.2553 19.3322 65.0705 19.399 64.874 19.4619C64.6852 19.5248 64.4808 19.5838 64.2606 19.6388C64.0484 19.6938 63.8203 19.745 63.5766 19.7921C63.3407 19.8393 63.093 19.8826 62.8335 19.9219C62.3303 20.0005 61.9175 20.1302 61.5951 20.3111C61.2806 20.4841 61.0447 20.7003 60.8875 20.9598C60.7381 21.2114 60.6634 21.4945 60.6634 21.809C60.6634 22.3122 60.8403 22.6975 61.1941 22.9648C61.5479 23.2322 62.0001 23.3658 62.5505 23.3658Z" fill="#FF6566"/>
</svg>
