<svg width="60" height="60" viewBox="0 0 60 60" fill="none" xmlns="http://www.w3.org/2000/svg">
<path fill-rule="evenodd" clip-rule="evenodd" d="M10 30C10 27.2443 12.2443 25 15 25C17.7557 25 20 27.2443 20 30C20 32.7557 17.7557 35 15 35C12.2443 35 10 32.7557 10 30ZM15.0045 30C15.0052 29.9994 15.0059 29.9989 15.0064 29.9986C15.0074 29.9979 15.0076 29.9979 15.0068 29.9982C15.0064 29.9984 15.0058 29.9986 15.005 29.9989C15.0045 29.999 15.0041 29.9992 15.0037 29.9993C15.0032 29.9988 15.0026 29.9984 15.0021 29.9979C15.0016 29.9974 15.0012 29.9968 15.0007 29.9963M15.0037 30.0007C15.0041 30.0008 15.0045 30.001 15.005 30.0011C15.0058 30.0014 15.0064 30.0016 15.0068 30.0018C15.0076 30.0021 15.0074 30.0021 15.0064 30.0014C15.0059 30.0011 15.0052 30.0006 15.0045 30M15.0007 30.0037C15.0012 30.0032 15.0016 30.0026 15.0021 30.0021C15.0026 30.0016 15.0032 30.0012 15.0037 30.0007M15.0007 30.0037C15.0008 30.0041 15.001 30.0045 15.0011 30.005C15.0014 30.0058 15.0016 30.0064 15.0018 30.0068C15.0021 30.0076 15.0021 30.0074 15.0014 30.0064C15.0011 30.0059 15.0006 30.0052 15 30.0045C14.9994 30.0052 14.9989 30.0059 14.9986 30.0064C14.9979 30.0074 14.9979 30.0076 14.9982 30.0068C14.9983 30.0067 14.9984 30.0064 14.9985 30.0062C14.9986 30.0059 14.9988 30.0054 14.9989 30.005C14.999 30.0045 14.9992 30.0041 14.9993 30.0037C14.9988 30.0032 14.9984 30.0026 14.9979 30.0021C14.9974 30.0016 14.9968 30.0012 14.9963 30.0007C14.9959 30.0008 14.9955 30.001 14.995 30.0011C14.9942 30.0014 14.9936 30.0016 14.9932 30.0018C14.9924 30.0021 14.9926 30.0021 14.9936 30.0014C14.9939 30.0012 14.9942 30.001 14.9945 30.0008C14.9948 30.0005 14.9952 30.0003 14.9955 30" fill="white"/>
<path fill-rule="evenodd" clip-rule="evenodd" d="M10 15C10 12.2443 12.2443 10 15 10C17.7557 10 20 12.2443 20 15C20 17.7557 17.7557 20 15 20C12.2443 20 10 17.7557 10 15ZM15.0045 15C15.0052 14.9994 15.0059 14.9989 15.0064 14.9986C15.0074 14.9979 15.0076 14.9979 15.0068 14.9982C15.0064 14.9984 15.0058 14.9986 15.005 14.9989C15.0045 14.999 15.0041 14.9992 15.0037 14.9993C15.0032 14.9988 15.0026 14.9984 15.0021 14.9979C15.0016 14.9974 15.0012 14.9968 15.0007 14.9963M15.0037 15.0007C15.0041 15.0008 15.0045 15.001 15.005 15.0011C15.0058 15.0014 15.0064 15.0016 15.0068 15.0018C15.0076 15.0021 15.0074 15.0021 15.0064 15.0014C15.0059 15.0011 15.0052 15.0006 15.0045 15M15.0007 15.0037C15.0012 15.0032 15.0016 15.0026 15.0021 15.0021C15.0026 15.0016 15.0032 15.0012 15.0037 15.0007M15.0007 15.0037C15.0008 15.0041 15.001 15.0045 15.0011 15.005C15.0014 15.0058 15.0016 15.0064 15.0018 15.0068C15.0021 15.0076 15.0021 15.0074 15.0014 15.0064C15.0011 15.0059 15.0006 15.0052 15 15.0045C14.9994 15.0052 14.9989 15.0059 14.9986 15.0064C14.9979 15.0074 14.9979 15.0076 14.9982 15.0068C14.9983 15.0067 14.9984 15.0064 14.9985 15.0062C14.9986 15.0059 14.9988 15.0054 14.9989 15.005C14.999 15.0045 14.9992 15.0041 14.9993 15.0037C14.9988 15.0032 14.9984 15.0026 14.9979 15.0021C14.9974 15.0016 14.9968 15.0012 14.9963 15.0007C14.9959 15.0008 14.9955 15.001 14.995 15.0011C14.9942 15.0014 14.9936 15.0016 14.9932 15.0018C14.9924 15.0021 14.9926 15.0021 14.9936 15.0014C14.9939 15.0012 14.9942 15.001 14.9945 15.0008C14.9948 15.0005 14.9952 15.0003 14.9955 15" fill="white"/>
<path fill-rule="evenodd" clip-rule="evenodd" d="M10 45C10 42.2443 12.2443 40 15 40C17.7557 40 20 42.2443 20 45C20 47.7557 17.7557 50 15 50C12.2443 50 10 47.7557 10 45ZM15.0045 45C15.0052 44.9994 15.0059 44.9989 15.0064 44.9986C15.0074 44.9979 15.0076 44.9979 15.0068 44.9982C15.0064 44.9984 15.0058 44.9986 15.005 44.9989C15.0045 44.999 15.0041 44.9992 15.0037 44.9993C15.0032 44.9988 15.0026 44.9984 15.0021 44.9979C15.0016 44.9974 15.0012 44.9968 15.0007 44.9963M15.0037 45.0007C15.0041 45.0008 15.0045 45.001 15.005 45.0011C15.0058 45.0014 15.0064 45.0016 15.0068 45.0018C15.0076 45.0021 15.0074 45.0021 15.0064 45.0014C15.0059 45.0011 15.0052 45.0006 15.0045 45M15.0007 45.0037C15.0012 45.0032 15.0016 45.0026 15.0021 45.0021C15.0026 45.0016 15.0032 45.0012 15.0037 45.0007M15.0007 45.0037C15.0008 45.0041 15.001 45.0045 15.0011 45.005C15.0014 45.0058 15.0016 45.0064 15.0018 45.0068C15.0021 45.0076 15.0021 45.0074 15.0014 45.0064C15.0011 45.0059 15.0006 45.0052 15 45.0045C14.9994 45.0052 14.9989 45.0059 14.9986 45.0064C14.9979 45.0074 14.9979 45.0076 14.9982 45.0068C14.9983 45.0067 14.9984 45.0064 14.9985 45.0062C14.9986 45.0059 14.9988 45.0054 14.9989 45.005C14.999 45.0045 14.9992 45.0041 14.9993 45.0037C14.9988 45.0032 14.9984 45.0026 14.9979 45.0021C14.9974 45.0016 14.9968 45.0012 14.9963 45.0007C14.9959 45.0008 14.9955 45.001 14.995 45.0011C14.9942 45.0014 14.9936 45.0016 14.9932 45.0018C14.9924 45.0021 14.9926 45.0021 14.9936 45.0014C14.9939 45.0012 14.9942 45.001 14.9945 45.0008C14.9948 45.0005 14.9952 45.0003 14.9955 45" fill="white"/>
<path fill-rule="evenodd" clip-rule="evenodd" d="M25 30C25 27.2443 27.2443 25 30 25C32.7557 25 35 27.2443 35 30C35 32.7557 32.7557 35 30 35C27.2443 35 25 32.7557 25 30ZM30.0045 30C30.0052 29.9994 30.0059 29.9989 30.0064 29.9986C30.0074 29.9979 30.0076 29.9979 30.0068 29.9982C30.0064 29.9984 30.0058 29.9986 30.005 29.9989C30.0045 29.999 30.0041 29.9992 30.0037 29.9993C30.0032 29.9988 30.0026 29.9984 30.0021 29.9979C30.0016 29.9974 30.0012 29.9968 30.0007 29.9963M30.0037 30.0007C30.0041 30.0008 30.0045 30.001 30.005 30.0011C30.0058 30.0014 30.0064 30.0016 30.0068 30.0018C30.0076 30.0021 30.0074 30.0021 30.0064 30.0014C30.0059 30.0011 30.0052 30.0006 30.0045 30M30.0007 30.0037C30.0012 30.0032 30.0016 30.0026 30.0021 30.0021C30.0026 30.0016 30.0032 30.0012 30.0037 30.0007M30.0007 30.0037C30.0008 30.0041 30.001 30.0045 30.0011 30.005C30.0014 30.0058 30.0016 30.0064 30.0018 30.0068C30.0021 30.0076 30.0021 30.0074 30.0014 30.0064C30.0011 30.0059 30.0006 30.0052 30 30.0045C29.9994 30.0052 29.9989 30.0059 29.9986 30.0064C29.9979 30.0074 29.9979 30.0076 29.9982 30.0068C29.9983 30.0067 29.9984 30.0064 29.9985 30.0062C29.9986 30.0059 29.9988 30.0054 29.9989 30.005C29.999 30.0045 29.9992 30.0041 29.9993 30.0037C29.9988 30.0032 29.9984 30.0026 29.9979 30.0021C29.9974 30.0016 29.9968 30.0012 29.9963 30.0007C29.9959 30.0008 29.9955 30.001 29.995 30.0011C29.9942 30.0014 29.9936 30.0016 29.9932 30.0018C29.9924 30.0021 29.9926 30.0021 29.9936 30.0014C29.9939 30.0012 29.9942 30.001 29.9945 30.0008C29.9948 30.0005 29.9952 30.0003 29.9955 30" fill="white"/>
<path fill-rule="evenodd" clip-rule="evenodd" d="M25 15C25 12.2443 27.2443 10 30 10C32.7557 10 35 12.2443 35 15C35 17.7557 32.7557 20 30 20C27.2443 20 25 17.7557 25 15ZM30.0045 15C30.0052 14.9994 30.0059 14.9989 30.0064 14.9986C30.0074 14.9979 30.0076 14.9979 30.0068 14.9982C30.0064 14.9984 30.0058 14.9986 30.005 14.9989C30.0045 14.999 30.0041 14.9992 30.0037 14.9993C30.0032 14.9988 30.0026 14.9984 30.0021 14.9979C30.0016 14.9974 30.0012 14.9968 30.0007 14.9963M30.0037 15.0007C30.0041 15.0008 30.0045 15.001 30.005 15.0011C30.0058 15.0014 30.0064 15.0016 30.0068 15.0018C30.0076 15.0021 30.0074 15.0021 30.0064 15.0014C30.0059 15.0011 30.0052 15.0006 30.0045 15M30.0007 15.0037C30.0012 15.0032 30.0016 15.0026 30.0021 15.0021C30.0026 15.0016 30.0032 15.0012 30.0037 15.0007M30.0007 15.0037C30.0008 15.0041 30.001 15.0045 30.0011 15.005C30.0014 15.0058 30.0016 15.0064 30.0018 15.0068C30.0021 15.0076 30.0021 15.0074 30.0014 15.0064C30.0011 15.0059 30.0006 15.0052 30 15.0045C29.9994 15.0052 29.9989 15.0059 29.9986 15.0064C29.9979 15.0074 29.9979 15.0076 29.9982 15.0068C29.9983 15.0067 29.9984 15.0064 29.9985 15.0062C29.9986 15.0059 29.9988 15.0054 29.9989 15.005C29.999 15.0045 29.9992 15.0041 29.9993 15.0037C29.9988 15.0032 29.9984 15.0026 29.9979 15.0021C29.9974 15.0016 29.9968 15.0012 29.9963 15.0007C29.9959 15.0008 29.9955 15.001 29.995 15.0011C29.9942 15.0014 29.9936 15.0016 29.9932 15.0018C29.9924 15.0021 29.9926 15.0021 29.9936 15.0014C29.9939 15.0012 29.9942 15.001 29.9945 15.0008C29.9948 15.0005 29.9952 15.0003 29.9955 15" fill="white"/>
<path fill-rule="evenodd" clip-rule="evenodd" d="M25 45C25 42.2443 27.2443 40 30 40C32.7557 40 35 42.2443 35 45C35 47.7557 32.7557 50 30 50C27.2443 50 25 47.7557 25 45ZM30.0045 45C30.0052 44.9994 30.0059 44.9989 30.0064 44.9986C30.0074 44.9979 30.0076 44.9979 30.0068 44.9982C30.0064 44.9984 30.0058 44.9986 30.005 44.9989C30.0045 44.999 30.0041 44.9992 30.0037 44.9993C30.0032 44.9988 30.0026 44.9984 30.0021 44.9979C30.0016 44.9974 30.0012 44.9968 30.0007 44.9963M30.0037 45.0007C30.0041 45.0008 30.0045 45.001 30.005 45.0011C30.0058 45.0014 30.0064 45.0016 30.0068 45.0018C30.0076 45.0021 30.0074 45.0021 30.0064 45.0014C30.0059 45.0011 30.0052 45.0006 30.0045 45M30.0007 45.0037C30.0012 45.0032 30.0016 45.0026 30.0021 45.0021C30.0026 45.0016 30.0032 45.0012 30.0037 45.0007M30.0007 45.0037C30.0008 45.0041 30.001 45.0045 30.0011 45.005C30.0014 45.0058 30.0016 45.0064 30.0018 45.0068C30.0021 45.0076 30.0021 45.0074 30.0014 45.0064C30.0011 45.0059 30.0006 45.0052 30 45.0045C29.9994 45.0052 29.9989 45.0059 29.9986 45.0064C29.9979 45.0074 29.9979 45.0076 29.9982 45.0068C29.9983 45.0067 29.9984 45.0064 29.9985 45.0062C29.9986 45.0059 29.9988 45.0054 29.9989 45.005C29.999 45.0045 29.9992 45.0041 29.9993 45.0037C29.9988 45.0032 29.9984 45.0026 29.9979 45.0021C29.9974 45.0016 29.9968 45.0012 29.9963 45.0007C29.9959 45.0008 29.9955 45.001 29.995 45.0011C29.9942 45.0014 29.9936 45.0016 29.9932 45.0018C29.9924 45.0021 29.9926 45.0021 29.9936 45.0014C29.9939 45.0012 29.9942 45.001 29.9945 45.0008C29.9948 45.0005 29.9952 45.0003 29.9955 45" fill="white"/>
<path fill-rule="evenodd" clip-rule="evenodd" d="M40 30C40 27.2443 42.2443 25 45 25C47.7557 25 50 27.2443 50 30C50 32.7557 47.7557 35 45 35C42.2443 35 40 32.7557 40 30ZM45.0045 30C45.0052 29.9994 45.0059 29.9989 45.0064 29.9986C45.0074 29.9979 45.0076 29.9979 45.0068 29.9982C45.0064 29.9984 45.0058 29.9986 45.005 29.9989C45.0045 29.999 45.0041 29.9992 45.0037 29.9993C45.0032 29.9988 45.0026 29.9984 45.0021 29.9979C45.0016 29.9974 45.0012 29.9968 45.0007 29.9963M45.0037 30.0007C45.0041 30.0008 45.0045 30.001 45.005 30.0011C45.0058 30.0014 45.0064 30.0016 45.0068 30.0018C45.0076 30.0021 45.0074 30.0021 45.0064 30.0014C45.0059 30.0011 45.0052 30.0006 45.0045 30M45.0007 30.0037C45.0012 30.0032 45.0016 30.0026 45.0021 30.0021C45.0026 30.0016 45.0032 30.0012 45.0037 30.0007M45.0007 30.0037C45.0008 30.0041 45.001 30.0045 45.0011 30.005C45.0014 30.0058 45.0016 30.0064 45.0018 30.0068C45.0021 30.0076 45.0021 30.0074 45.0014 30.0064C45.0011 30.0059 45.0006 30.0052 45 30.0045C44.9994 30.0052 44.9989 30.0059 44.9986 30.0064C44.9979 30.0074 44.9979 30.0076 44.9982 30.0068C44.9983 30.0067 44.9984 30.0064 44.9985 30.0062C44.9986 30.0059 44.9988 30.0054 44.9989 30.005C44.999 30.0045 44.9992 30.0041 44.9993 30.0037C44.9988 30.0032 44.9984 30.0026 44.9979 30.0021C44.9974 30.0016 44.9968 30.0012 44.9963 30.0007C44.9959 30.0008 44.9955 30.001 44.995 30.0011C44.9942 30.0014 44.9936 30.0016 44.9932 30.0018C44.9924 30.0021 44.9926 30.0021 44.9936 30.0014C44.9939 30.0012 44.9942 30.001 44.9945 30.0008C44.9948 30.0005 44.9952 30.0003 44.9955 30" fill="white"/>
<path fill-rule="evenodd" clip-rule="evenodd" d="M40 15C40 12.2443 42.2443 10 45 10C47.7557 10 50 12.2443 50 15C50 17.7557 47.7557 20 45 20C42.2443 20 40 17.7557 40 15ZM45.0045 15L45.0064 14.9986L45.005 14.9989L45.0037 14.9993L45.0021 14.9979L45.0007 14.9963M45.0037 15.0007L45.005 15.0011L45.0068 15.0018L45.0045 15M45.0007 15.0037L45.0021 15.0021L45.0037 15.0007M45.0007 15.0037L45.0011 15.005L45.0018 15.0068L45 15.0045L44.9986 15.0064L44.9989 15.005L44.9993 15.0037L44.9979 15.0021L44.9963 15.0007L44.995 15.0011L44.9955 15" fill="white"/>
<path fill-rule="evenodd" clip-rule="evenodd" d="M40 45C40 42.2443 42.2443 40 45 40C47.7557 40 50 42.2443 50 45C50 47.7557 47.7557 50 45 50C42.2443 50 40 47.7557 40 45ZM45.0045 45C45.0052 44.9994 45.0059 44.9989 45.0064 44.9986C45.0074 44.9979 45.0076 44.9979 45.0068 44.9982C45.0064 44.9984 45.0058 44.9986 45.005 44.9989C45.0045 44.999 45.0041 44.9992 45.0037 44.9993C45.0032 44.9988 45.0026 44.9984 45.0021 44.9979C45.0016 44.9974 45.0012 44.9968 45.0007 44.9963M45.0037 45.0007C45.0041 45.0008 45.0045 45.001 45.005 45.0011C45.0058 45.0014 45.0064 45.0016 45.0068 45.0018C45.0076 45.0021 45.0074 45.0021 45.0064 45.0014C45.0059 45.0011 45.0052 45.0006 45.0045 45M45.0007 45.0037C45.0012 45.0032 45.0016 45.0026 45.0021 45.0021C45.0026 45.0016 45.0032 45.0012 45.0037 45.0007M45.0007 45.0037C45.0008 45.0041 45.001 45.0045 45.0011 45.005C45.0014 45.0058 45.0016 45.0064 45.0018 45.0068C45.0021 45.0076 45.0021 45.0074 45.0014 45.0064C45.0011 45.0059 45.0006 45.0052 45 45.0045C44.9994 45.0052 44.9989 45.0059 44.9986 45.0064C44.9979 45.0074 44.9979 45.0076 44.9982 45.0068C44.9983 45.0067 44.9984 45.0064 44.9985 45.0062C44.9986 45.0059 44.9988 45.0054 44.9989 45.005C44.999 45.0045 44.9992 45.0041 44.9993 45.0037C44.9988 45.0032 44.9984 45.0026 44.9979 45.0021C44.9974 45.0016 44.9968 45.0012 44.9963 45.0007C44.9959 45.0008 44.9955 45.001 44.995 45.0011C44.9942 45.0014 44.9936 45.0016 44.9932 45.0018C44.9924 45.0021 44.9926 45.0021 44.9936 45.0014C44.9939 45.0012 44.9942 45.001 44.9945 45.0008C44.9948 45.0005 44.9952 45.0003 44.9955 45" fill="white"/>
</svg>
