<svg width="60" height="60" viewBox="0 0 60 60" fill="none" xmlns="http://www.w3.org/2000/svg">
<path fill-rule="evenodd" clip-rule="evenodd" d="M46.6676 8.74969C44.1367 8.74969 42.085 10.8014 42.085 13.3322C42.085 15.8631 44.1367 17.9147 46.6676 17.9147C49.1984 17.9147 51.2501 15.8631 51.2501 13.3322C51.2501 10.8014 49.1984 8.74969 46.6676 8.74969ZM38.335 13.3322C38.335 8.73029 42.0656 4.99969 46.6676 4.99969C51.2695 4.99969 55.0001 8.73029 55.0001 13.3322C55.0001 17.9341 51.2695 21.6647 46.6676 21.6647C42.0656 21.6647 38.335 17.9341 38.335 13.3322Z" fill="white"/>
<path fill-rule="evenodd" clip-rule="evenodd" d="M46.6676 25.4174C44.1367 25.4174 42.085 27.4691 42.085 29.9999C42.085 32.5308 44.1367 34.5824 46.6676 34.5824C49.1984 34.5824 51.2501 32.5308 51.2501 29.9999C51.2501 27.4691 49.1984 25.4174 46.6676 25.4174ZM38.335 29.9999C38.335 25.398 42.0656 21.6674 46.6676 21.6674C51.2695 21.6674 55.0001 25.398 55.0001 29.9999C55.0001 34.6018 51.2695 38.3324 46.6676 38.3324C42.0656 38.3324 38.335 34.6018 38.335 29.9999Z" fill="white"/>
<path fill-rule="evenodd" clip-rule="evenodd" d="M46.6676 42.0851C44.1367 42.0851 42.085 44.1367 42.085 46.6676C42.085 49.1984 44.1367 51.2501 46.6676 51.2501C49.1984 51.2501 51.2501 49.1984 51.2501 46.6676C51.2501 44.1367 49.1984 42.0851 46.6676 42.0851ZM38.335 46.6676C38.335 42.0657 42.0656 38.3351 46.6676 38.3351C51.2695 38.3351 55.0001 42.0657 55.0001 46.6676C55.0001 51.2695 51.2695 55.0001 46.6676 55.0001C42.0656 55.0001 38.335 51.2695 38.335 46.6676Z" fill="white"/>
<path fill-rule="evenodd" clip-rule="evenodd" d="M30.0006 8.74969C27.4697 8.74969 25.418 10.8014 25.418 13.3322C25.418 15.8631 27.4697 17.9147 30.0006 17.9147C32.5314 17.9147 34.5831 15.8631 34.5831 13.3322C34.5831 10.8014 32.5314 8.74969 30.0006 8.74969ZM21.668 13.3322C21.668 8.73029 25.3986 4.99969 30.0006 4.99969C34.6025 4.99969 38.3332 8.73029 38.3332 13.3322C38.3332 17.9341 34.6025 21.6647 30.0006 21.6647C25.3986 21.6647 21.668 17.9341 21.668 13.3322Z" fill="white"/>
<path fill-rule="evenodd" clip-rule="evenodd" d="M30.0006 25.4174C27.4697 25.4174 25.418 27.4691 25.418 29.9999C25.418 32.5308 27.4697 34.5824 30.0006 34.5824C32.5314 34.5824 34.5831 32.5308 34.5831 29.9999C34.5831 27.4691 32.5314 25.4174 30.0006 25.4174ZM21.668 29.9999C21.668 25.398 25.3986 21.6674 30.0006 21.6674C34.6025 21.6674 38.3332 25.398 38.3332 29.9999C38.3332 34.6018 34.6025 38.3324 30.0006 38.3324C25.3986 38.3324 21.668 34.6018 21.668 29.9999Z" fill="white"/>
<path fill-rule="evenodd" clip-rule="evenodd" d="M30.0006 42.0851C27.4697 42.0851 25.418 44.1367 25.418 46.6676C25.418 49.1984 27.4697 51.2501 30.0006 51.2501C32.5314 51.2501 34.5831 49.1984 34.5831 46.6676C34.5831 44.1367 32.5314 42.0851 30.0006 42.0851ZM21.668 46.6676C21.668 42.0657 25.3986 38.3351 30.0006 38.3351C34.6025 38.3351 38.3332 42.0657 38.3332 46.6676C38.3332 51.2695 34.6025 55.0001 30.0006 55.0001C25.3986 55.0001 21.668 51.2695 21.668 46.6676Z" fill="white"/>
<path fill-rule="evenodd" clip-rule="evenodd" d="M13.3326 8.74969C10.8017 8.74969 8.75004 10.8014 8.75004 13.3322C8.75004 15.8631 10.8017 17.9147 13.3326 17.9147C15.8635 17.9147 17.9151 15.8631 17.9151 13.3322C17.9151 10.8014 15.8635 8.74969 13.3326 8.74969ZM5 13.3322C5 8.73029 8.73063 4.99969 13.3326 4.99969C17.9346 4.99969 21.6652 8.73029 21.6652 13.3322C21.6652 17.9341 17.9346 21.6647 13.3326 21.6647C8.73063 21.6647 5 17.9341 5 13.3322Z" fill="white"/>
<path fill-rule="evenodd" clip-rule="evenodd" d="M13.3326 25.4174C10.8017 25.4174 8.75004 27.4691 8.75004 29.9999C8.75004 32.5308 10.8017 34.5824 13.3326 34.5824C15.8635 34.5824 17.9151 32.5308 17.9151 29.9999C17.9151 27.4691 15.8635 25.4174 13.3326 25.4174ZM5 29.9999C5 25.398 8.73063 21.6674 13.3326 21.6674C17.9346 21.6674 21.6652 25.398 21.6652 29.9999C21.6652 34.6018 17.9346 38.3324 13.3326 38.3324C8.73063 38.3324 5 34.6018 5 29.9999Z" fill="white"/>
<path fill-rule="evenodd" clip-rule="evenodd" d="M13.3326 42.0851C10.8017 42.0851 8.75004 44.1367 8.75004 46.6676C8.75004 49.1984 10.8017 51.2501 13.3326 51.2501C15.8635 51.2501 17.9151 49.1984 17.9151 46.6676C17.9151 44.1367 15.8635 42.0851 13.3326 42.0851ZM5 46.6676C5 42.0657 8.73063 38.3351 13.3326 38.3351C17.9346 38.3351 21.6652 42.0657 21.6652 46.6676C21.6652 51.2695 17.9346 55.0001 13.3326 55.0001C8.73063 55.0001 5 51.2695 5 46.6676Z" fill="white"/>
</svg>
