<svg width="60" height="60" viewBox="0 0 60 60" fill="none" xmlns="http://www.w3.org/2000/svg">
<path fill-rule="evenodd" clip-rule="evenodd" d="M14.2678 17.1967C15.6743 15.7902 17.5819 15 19.5711 15H21.3196C22.484 15 23.6323 15.2711 24.6738 15.7918C24.6737 15.7918 24.6738 15.7918 24.6738 15.7918L28.618 17.7639C29.853 18.3814 30.3535 19.8831 29.7361 21.118C29.1186 22.353 27.6169 22.8535 26.382 22.2361L22.4377 20.2639C22.0906 20.0904 21.7078 20 21.3196 20H19.5711C18.908 20 18.2722 20.2634 17.8033 20.7322L15.7322 22.8033C15.2634 23.2722 15 23.908 15 24.5711V37.324C15 38.1599 15.4178 38.9405 16.1132 39.4041L16.1132 39.4041L25.7804 45.8489L25.7806 45.849C26.7016 46.4631 27.917 46.3982 28.7675 45.6894L40.8995 35.5794C41.9602 34.6955 43.5366 34.8388 44.4206 35.8995C45.3045 36.9602 45.1612 38.5366 44.1005 39.4206L31.9685 49.5306C29.417 51.6568 25.7704 51.8519 23.0067 50.009L13.3398 43.5644C11.2532 42.1735 10 39.8316 10 37.324V24.5711C10 22.5819 10.7902 20.6743 12.1967 19.2678L14.2678 17.1967Z" fill="white"/>
<path fill-rule="evenodd" clip-rule="evenodd" d="M32.7095 20.5796C32.7094 20.5796 32.7095 20.5795 32.7095 20.5796L22.3037 29.2513C21.7133 29.7432 21.6721 30.6365 22.216 31.1806C22.216 31.1806 22.2161 31.1807 22.216 31.1806C22.6323 31.5967 23.2754 31.6837 23.7871 31.393C23.787 31.3931 23.7871 31.393 23.7871 31.393L28.4253 28.7568C31.7128 26.8886 35.8773 27.7595 38.1402 30.7895C38.1401 30.7895 38.1402 30.7896 38.1402 30.7895L40.4969 33.945C41.9359 35.8718 44.9999 34.8543 44.9999 32.449V25.5903C44.9999 24.6432 44.4649 23.7776 43.6179 23.3541L37.4376 20.2639C37.0905 20.0904 36.7078 20 36.3197 20H34.3102C33.7255 20 33.1591 20.2051 32.7095 20.5796ZM29.5089 16.7382C30.8568 15.6152 32.5555 15 34.3102 15H36.3197C37.484 15 38.6323 15.2711 39.6737 15.7918M39.6737 15.7918L45.8539 18.8819C45.8539 18.8819 45.8539 18.8819 45.8539 18.8819C48.3949 20.1524 49.9999 22.7494 49.9999 25.5903V32.449C49.9999 39.6642 40.8084 42.7181 36.4909 36.9369L34.1341 33.7814C33.3799 32.7715 31.9918 32.481 30.8958 33.1038L26.2578 35.74C23.7895 37.1426 20.6881 36.7236 18.6807 34.7164C16.0582 32.0936 16.253 27.7848 19.1027 25.4102C19.1026 25.4103 19.1027 25.4102 19.1027 25.4102L29.5089 16.7382" fill="white"/>
<path fill-rule="evenodd" clip-rule="evenodd" d="M2.5 17.5C3.88071 17.5 5 18.6193 5 20V42.5C5 43.8807 3.88071 45 2.5 45C1.11929 45 0 43.8807 0 42.5V20C0 18.6193 1.11929 17.5 2.5 17.5Z" fill="black"/>
<path fill-rule="evenodd" clip-rule="evenodd" d="M2.5 17.5C3.88071 17.5 5 18.6193 5 20V42.5C5 43.8807 3.88071 45 2.5 45C1.11929 45 0 43.8807 0 42.5V20C0 18.6193 1.11929 17.5 2.5 17.5Z" fill="white"/>
<path fill-rule="evenodd" clip-rule="evenodd" d="M57.5 17.5C58.8807 17.5 60 18.6193 60 20V42.5C60 43.8807 58.8807 45 57.5 45C56.1193 45 55 43.8807 55 42.5V20C55 18.6193 56.1193 17.5 57.5 17.5Z" fill="white"/>
</svg>
