<svg width="60" height="60" viewBox="0 0 60 60" fill="none" xmlns="http://www.w3.org/2000/svg">
<path fill-rule="evenodd" clip-rule="evenodd" d="M18.0625 1.36249H41.9375V46.7C41.9375 49.866 40.6798 52.9024 38.4411 55.1411C36.2024 57.3798 33.166 58.6375 30 58.6375C26.834 58.6375 23.7976 57.3798 21.5589 55.1411C19.3202 52.9024 18.0625 49.866 18.0625 46.7V1.36249ZM22.8375 6.13749V46.7C22.8375 48.5996 23.5921 50.4214 24.9353 51.7646C26.2786 53.1079 28.1004 53.8625 30 53.8625C31.8996 53.8625 33.7214 53.1079 35.0646 51.7646C36.4079 50.4214 37.1625 48.5996 37.1625 46.7V6.13749H22.8375Z" fill="white"/>
<path fill-rule="evenodd" clip-rule="evenodd" d="M46.6998 3.74999C46.6998 5.06857 45.6309 6.13749 44.3123 6.13749H15.6873C14.3687 6.13749 13.2998 5.06857 13.2998 3.74999C13.2998 2.43141 14.3687 1.36249 15.6873 1.36249H44.3123C45.6309 1.36249 46.6998 2.43141 46.6998 3.74999Z" fill="white"/>
<path fill-rule="evenodd" clip-rule="evenodd" d="M31.0679 20.1979C28.5453 21.4592 25.7661 22.8375 20.4502 22.8375V18.0625C24.6618 18.0625 26.6589 17.0639 28.8967 15.9449L28.9325 15.927C31.4551 14.6657 34.2342 13.2875 39.5502 13.2875V18.0625C35.3386 18.0625 33.3415 19.0611 31.1037 20.18L31.0679 20.1979Z" fill="white"/>
<path fill-rule="evenodd" clip-rule="evenodd" d="M29.9996 32.375C29.9996 33.6936 28.9307 34.7625 27.6121 34.7625C26.2935 34.7625 25.2246 33.6936 25.2246 32.375C25.2246 31.0564 26.2935 29.9875 27.6121 29.9875C28.9307 29.9875 29.9996 31.0564 29.9996 32.375Z" fill="#FF606B"/>
<path fill-rule="evenodd" clip-rule="evenodd" d="M34.775 44.325C34.775 45.6436 33.7061 46.7125 32.3875 46.7125C31.0689 46.7125 30 45.6436 30 44.325C30 43.0064 31.0689 41.9375 32.3875 41.9375C33.7061 41.9375 34.775 43.0064 34.775 44.325Z" fill="#FF606B"/>
</svg>
